<svg width="135" height="44" viewBox="0 0 135 44" fill="none" xmlns="http://www.w3.org/2000/svg">
<path d="M14.3726 20.0088C14.1802 15.9028 11.742 15.1207 9.62452 15.1207C7.50706 15.1207 4.87644 15.968 4.87644 20.3347V32.0665C4.87644 32.5877 4.61973 32.8485 4.10656 32.8485H0.769873C0.256705 32.8485 0 32.5877 0 32.0665V20.3347C0 13.6869 4.23467 10.2979 9.68857 10.2979C12.6402 10.2979 15.3992 11.4711 16.8749 13.6869C18.3508 11.5361 21.1098 10.2979 24.0612 10.2979C29.5151 10.2979 33.75 13.6216 33.75 20.2697V32.0012C33.75 32.5226 33.4933 32.7832 32.9801 32.7832H29.5151C29.0019 32.7832 28.7452 32.5226 28.7452 32.0012V20.2697C28.7452 15.9028 26.1786 15.0557 23.9971 15.0557C21.8797 15.0557 19.4414 15.8377 19.249 19.9438V32.0012C19.249 32.5226 18.9923 32.7832 18.4792 32.7832H15.0144C14.501 32.7832 14.2443 32.5226 14.2443 32.0012V20.0088H14.3726Z" fill="#F15A2D"/>
<path d="M42.9895 32.0666C42.9895 32.5878 42.7331 32.8486 42.2197 32.8486H38.7549C38.2415 32.8486 37.9847 32.5878 37.9847 32.0666V11.7318C37.9847 11.2103 38.2415 10.9497 38.7549 10.9497H42.2197C42.7331 10.9497 42.9895 11.2103 42.9895 11.7318V32.0666Z" fill="#F15A2D"/>
<path d="M68.7834 32.0665C68.7834 32.5877 68.5267 32.8485 68.0132 32.8485H64.5484C64.0353 32.8485 63.7786 32.5877 63.7786 32.0665V29.9156C61.9819 32.7832 58.5814 33.435 56.4639 33.435C49.8551 33.435 46.1979 27.9604 46.1979 22.0294C46.1979 14.6645 51.2667 10.2979 57.6189 10.2979C63.9069 10.2979 68.7834 14.2084 68.7834 22.0946V32.0665ZM57.6189 15.1207C54.8599 15.1207 51.2024 16.7501 51.2024 21.8991C51.2024 26.9175 54.2181 28.6772 56.9773 28.8077C59.672 29.003 63.8426 27.4389 63.8426 22.0294C63.8426 16.4242 60.3138 15.1207 57.6189 15.1207Z" fill="#F15A2D"/>
<path d="M85.4658 14.99C85.4016 15.4462 85.0167 15.772 84.6317 15.5765C83.7335 15.3811 82.8352 15.3159 82.001 15.3159C79.6269 15.3159 77.5094 16.1632 77.5094 19.6825V32.066C77.5094 32.5872 77.253 32.8481 76.7396 32.8481H73.2748C72.7613 32.8481 72.5049 32.5872 72.5049 32.066V19.6825C72.5049 12.9044 76.4829 10.4277 81.4236 10.4277C82.7069 10.4277 84.0542 10.6233 85.4015 10.9492C85.8509 11.1448 86.1717 11.4706 85.979 11.9268L85.4658 14.99Z" fill="#F15A2D"/>
<path d="M109.014 32.0664C109.014 32.5876 108.757 32.8484 108.244 32.8484H104.779C104.266 32.8484 104.009 32.5876 104.009 32.0664V29.9155C102.212 32.7832 98.8117 33.4349 96.6942 33.4349C90.0213 33.4349 86.3639 27.9603 86.3639 22.0945C86.3639 14.7297 91.4327 10.3628 97.7851 10.3628C104.073 10.3628 108.949 14.2733 108.949 22.1596V32.0664H109.014ZM97.8492 15.1206C95.0902 15.1206 91.4327 16.75 91.4327 21.899C91.4327 26.9174 94.4484 28.6771 97.2076 28.8076C99.9023 29.0029 104.073 27.4388 104.073 22.0293C104.073 16.4241 100.608 15.1206 97.8492 15.1206Z" fill="#F15A2D"/>
<path d="M122.873 33.5003C116.585 33.5003 111.708 29.5245 111.708 21.8991C111.708 14.2734 116.585 10.2979 122.873 10.2979C129.161 10.2979 134.038 14.2734 134.038 21.8991C134.038 29.5245 129.161 33.5003 122.873 33.5003ZM122.873 15.1207C120.114 15.1207 116.649 16.4242 116.649 21.8991C116.649 27.3737 120.114 28.6772 122.873 28.6772C125.632 28.6772 129.097 27.3737 129.097 21.8991C129.097 16.4242 125.632 15.1207 122.873 15.1207Z" fill="#F15A2D"/>
<path d="M134.294 39.4961C130.508 39.1052 127.493 36.0417 127.172 32.1965C127.108 31.8054 126.787 31.4795 126.338 31.4795H123.515C123.001 31.4795 122.681 31.9357 122.681 32.3921C123.13 38.5837 128.006 43.5369 134.102 43.9933C134.615 44.0583 135 43.6674 135 43.146V40.2781C135 39.8872 134.679 39.5613 134.294 39.4961Z" fill="#F15A2D"/>
<path d="M111.516 39.4961C115.302 39.1052 118.317 36.0417 118.638 32.1965C118.702 31.8054 119.023 31.4795 119.472 31.4795H122.295C122.809 31.4795 123.13 31.9357 123.13 32.3921C122.68 38.5837 117.804 43.5369 111.709 43.9933C111.195 44.0583 110.81 43.6674 110.81 43.146V40.2781C110.746 39.8872 111.067 39.5613 111.516 39.4961Z" fill="#F15A2D"/>
<path d="M130.958 8.21191C133.19 8.21191 135 6.37356 135 4.10608C135 1.83835 133.19 0 130.958 0C128.725 0 126.915 1.83835 126.915 4.10608C126.915 6.37356 128.725 8.21191 130.958 8.21191Z" fill="#F15A2D"/>
<path d="M114.788 8.21191C117.021 8.21191 118.831 6.37356 118.831 4.10608C118.831 1.83835 117.021 0 114.788 0C112.556 0 110.746 1.83835 110.746 4.10608C110.746 6.37356 112.556 8.21191 114.788 8.21191Z" fill="#F15A2D"/>
</svg>
